<?xml version="1.0" standalone="no"?>
<!DOCTYPE svg PUBLIC "-//W3C//DTD SVG 20010904//EN"
 "http://www.w3.org/TR/2001/REC-SVG-20010904/DTD/svg10.dtd">
<svg version="1.0" xmlns="http://www.w3.org/2000/svg"
 width="391.000000pt" height="76.000000pt" viewBox="0 0 391.000000 76.000000"
 preserveAspectRatio="xMidYMid meet">

<g transform="translate(0.000000,76.000000) scale(0.100000,-0.100000)"
fill="#000000" stroke="none">
<path d="M0 455 l0 -305 35 0 c25 0 44 8 60 25 23 22 25 31 25 125 l0 100 225
0 225 0 0 -100 c0 -94 2 -103 25 -125 16 -17 35 -25 60 -25 l35 0 0 160 c0
147 -2 162 -20 180 -24 24 1 22 -302 20 l-248 -2 0 102 c0 94 -2 103 -25 125
-16 17 -35 25 -60 25 l-35 0 0 -305z"/>
<path d="M918 521 c-47 -10 -84 -34 -102 -69 -16 -31 -76 -255 -76 -283 0 -15
8 -19 39 -19 43 0 58 13 67 58 l7 32 93 0 94 0 0 -34 c0 -42 19 -58 62 -54
l33 3 0 185 0 185 -90 2 c-49 0 -106 -2 -127 -6z m122 -136 l0 -65 -80 0 c-44
0 -80 3 -80 6 0 3 5 25 11 50 14 55 40 74 101 74 l48 0 0 -65z"/>
<path d="M1355 518 c-2 -7 -5 -68 -7 -135 -4 -149 -8 -156 -100 -157 l-63 -1
0 -35 0 -35 68 -3 c50 -2 78 2 111 17 69 30 80 54 84 196 5 144 -2 165 -54
165 -19 0 -37 -6 -39 -12z"/>
<path d="M1522 522 c-9 -7 -12 -51 -10 -188 l3 -179 33 -3 c59 -6 62 2 62 187
0 117 -4 171 -12 179 -14 14 -57 16 -76 4z"/>
<path d="M1838 521 c-47 -10 -84 -34 -102 -69 -16 -31 -76 -255 -76 -283 0
-15 8 -19 39 -19 43 0 58 13 67 58 l7 32 93 0 94 0 0 -34 c0 -42 19 -58 62
-54 l33 3 0 185 0 185 -90 2 c-49 0 -106 -2 -127 -6z m122 -136 l0 -65 -80 0
c-44 0 -80 3 -80 6 0 3 5 25 11 50 14 55 40 74 101 74 l48 0 0 -65z"/>
<path d="M2152 522 c-9 -7 -12 -51 -10 -188 l3 -179 170 0 170 0 0 30 0 30
-122 3 -123 3 0 142 c0 98 -4 147 -12 155 -14 14 -57 16 -76 4z"/>
<path d="M2552 522 c-9 -7 -12 -51 -10 -188 l3 -179 33 -3 c59 -6 62 2 62 187
0 117 -4 171 -12 179 -14 14 -57 16 -76 4z"/>
<path d="M2680 515 c0 -8 30 -61 68 -117 63 -97 67 -107 72 -173 l5 -70 45 0
45 0 5 70 c5 66 9 76 73 173 37 57 67 109 67 117 0 20 -59 20 -87 0 -12 -8
-38 -42 -58 -75 -20 -33 -39 -60 -43 -60 -4 0 -24 27 -46 60 -21 34 -48 67
-60 75 -27 20 -86 20 -86 0z"/>
<path d="M3122 522 c-9 -7 -12 -51 -10 -188 l3 -179 170 0 170 0 0 30 0 30
-122 3 -123 3 0 39 0 39 101 3 c84 3 104 6 113 21 8 12 8 22 0 35 -9 14 -29
17 -113 20 l-101 3 0 34 0 35 109 0 c60 0 116 3 125 6 9 4 16 18 16 34 0 16
-7 30 -16 34 -23 9 -307 7 -322 -2z"/>
<path d="M3484 517 c-5 -14 131 -322 156 -351 17 -21 73 -20 92 2 26 30 160
332 154 347 -8 21 -69 19 -88 -2 -9 -10 -37 -66 -63 -126 -26 -59 -49 -106
-51 -105 -1 2 -24 50 -50 108 -25 58 -53 113 -62 123 -18 20 -80 23 -88 4z"/>
</g>
</svg>
