<svg width="28" height="21" viewBox="0 0 28 21" fill="none" xmlns="http://www.w3.org/2000/svg">
<path fill-rule="evenodd" clip-rule="evenodd" d="M24.0771 17.0654C26.4177 14.9878 28 12.3616 28 10.5C28 8.63808 26.4202 6.01177 24.0821 3.93487C21.3209 1.48227 17.8188 0 14 0C10.1817 0 6.6799 1.48456 3.91752 3.9404C1.5808 6.01783 0 8.64414 0 10.5C0 12.3555 1.58329 14.9817 3.92245 17.0599C6.68623 19.5153 10.1871 21 14 21C17.8134 21 21.3146 19.5176 24.0771 17.0654ZM5.58385 15.0711C3.75084 13.4426 2.54545 11.4433 2.54545 10.5C2.54545 9.55534 3.74869 7.5563 5.57958 5.92858C7.90092 3.86482 10.8254 2.625 14 2.625C17.1758 2.625 20.1008 3.863 22.4208 5.92378C24.2527 7.55094 25.4545 9.54899 25.4545 10.5C25.4545 11.4496 24.2505 13.448 22.4166 15.0759C20.0949 17.1368 17.1704 18.375 14 18.375C10.8308 18.375 7.90686 17.1349 5.58385 15.0711ZM14 5.25C16.8116 5.25 19.0909 7.6005 19.0909 10.5C19.0909 13.3995 16.8116 15.75 14 15.75C11.1884 15.75 8.90909 13.3995 8.90909 10.5C8.90909 7.6005 11.1884 5.25 14 5.25ZM14 7.875C12.5942 7.875 11.4545 9.05025 11.4545 10.5C11.4545 11.9497 12.5942 13.125 14 13.125C15.4058 13.125 16.5455 11.9497 16.5455 10.5C16.4157 10.5 16.1314 10.5 15.9091 10.5C14.8547 10.5 14 9.61856 14 8.53125C14 8.30201 14 7.95118 14 7.875Z" fill="#666EE8"/>
</svg>
