<svg width="23" height="23" viewBox="0 0 23 23" fill="none" xmlns="http://www.w3.org/2000/svg">
<path fill-rule="evenodd" clip-rule="evenodd" d="M21.2648 5.41191L16.9267 1.49221C16.4653 1.07529 15.8614 0.845703 15.2262 0.845703H6.96711C5.60271 0.845703 4.49268 1.90587 4.49268 3.20898V20.4824C4.49268 21.7855 5.60271 22.8457 6.96711 22.8457H19.5642C20.9287 22.8457 22.0387 21.7855 22.0387 20.4824V7.12868C22.0387 6.48204 21.7566 5.85629 21.2648 5.41191ZM19.9539 6.00195H16.5949C16.4709 6.00195 16.37 5.90557 16.37 5.78711V2.76366L19.9539 6.00195ZM6.96711 21.5566H19.5643C20.1844 21.5566 20.689 21.0747 20.689 20.4824V7.29102H16.5949C15.7267 7.29102 15.0203 6.61636 15.0203 5.78711V2.13477H6.96711C6.34693 2.13477 5.84237 2.61666 5.84237 3.20898V20.4824C5.84237 21.0747 6.34693 21.5566 6.96711 21.5566Z" fill="#8A91FF"/>
<path d="M18.0794 9.43945H8.18168C7.80899 9.43945 7.50684 9.72803 7.50684 10.084C7.50684 10.4399 7.80899 10.7285 8.18168 10.7285H18.0794C18.4521 10.7285 18.7543 10.4399 18.7543 10.084C18.7543 9.72803 18.4521 9.43945 18.0794 9.43945Z" fill="#8A91FF"/>
<path d="M18.166 12.877H8.94669C8.6217 12.877 8.94669 13.1655 8.94669 13.5215C8.94669 13.8774 9.21016 14.166 9.53515 14.166H18.166C18.491 14.166 18.7545 13.8774 18.7545 13.5215C18.7545 13.1655 18.491 12.877 18.166 12.877Z" fill="#8A91FF"/>
<path d="M18.2633 16.3145H11.0577C10.7864 16.3145 10.5664 16.603 10.5664 16.959C10.5664 17.3149 10.7864 17.6035 11.0577 17.6035H18.2633C18.5346 17.6035 18.7545 17.3149 18.7545 16.959C18.7545 16.603 18.5346 16.3145 18.2633 16.3145Z" fill="#8A91FF"/>
<path d="M11.2956 17.1523C11.2956 19.9008 8.95369 22.1804 5.99972 22.1804C3.04575 22.1804 0.703854 19.9008 0.703854 17.1523C0.703854 14.4039 3.04575 12.1243 5.99972 12.1243C8.95369 12.1243 11.2956 14.4039 11.2956 17.1523Z" fill="white" stroke="#8A91FF" stroke-width="1.33056"/>
<path d="M8.52284 15.3856C8.69858 15.5534 8.69858 15.8255 8.52284 15.9933L5.50466 18.876C5.32891 19.0437 5.04413 19.0437 4.86838 18.876L3.43161 17.5036C3.25587 17.3359 3.25587 17.0638 3.43161 16.896C3.60726 16.7282 3.89214 16.7282 4.06779 16.896L5.18648 17.9645L7.88656 15.3856C8.06231 15.2178 8.34718 15.2178 8.52284 15.3856Z" fill="#8A91FF" stroke="#9DA3FF" stroke-width="0.924"/>
</svg>
