<svg width="24" height="23" viewBox="0 0 24 23" fill="none" xmlns="http://www.w3.org/2000/svg">
<path fill-rule="evenodd" clip-rule="evenodd" d="M22.367 10.7741C22.5526 10.9259 22.7762 11.0001 22.9989 11.0001C23.2889 11.0001 23.576 10.8751 23.7742 10.6334C24.1238 10.2057 24.0604 9.57583 23.6326 9.22622L12.6328 0.226318C12.2656 -0.0754392 11.7344 -0.0754392 11.3672 0.226318L0.367356 9.22622C-0.0603683 9.57583 -0.123847 10.2057 0.225758 10.6334C0.576343 11.0607 1.20524 11.1232 1.63297 10.7741L12 2.29221L22.367 10.7741ZM20.9999 21H22.9999C23.5526 21 23.9998 21.4478 23.9998 22C23.9998 22.5523 23.5526 23 22.9999 23H1.00017C0.447444 23 0.000180903 22.5523 0.000180903 22C0.000180903 21.4478 0.447444 21 1.00017 21H3.00014V12.2396L12 4.87616L20.9999 12.2396V21ZM9.00005 15.0001V21H15V15.0001C15 13.3432 13.6568 12.0001 12 12.0001C10.3432 12.0001 9.00005 13.3432 9.00005 15.0001Z" fill="#8A91FF"/>
</svg>
