<svg width="19" height="19" viewBox="0 0 19 19" fill="none" xmlns="http://www.w3.org/2000/svg">
<path d="M1.85547 16.7734C1.6505 16.7734 1.48438 16.9396 1.48438 17.1445V17.1448C1.48438 17.3496 1.6505 17.5158 1.85547 17.5158C2.06044 17.5158 2.22656 17.3495 2.22656 17.1445C2.22656 16.9396 2.06044 16.7734 1.85547 16.7734V16.7734Z" fill="#8A91FF"/>
<path fill-rule="evenodd" clip-rule="evenodd" d="M15.6603 0H18.629C18.834 0 19.0001 0.166122 19.0001 0.371094V6.30859C19.0001 6.51357 18.834 6.67969 18.629 6.67969H15.6603C15.4553 6.67969 15.2892 6.51357 15.2892 6.30859V6.19089C14.9114 6.35846 14.5437 6.42456 14.1894 6.42456C13.4761 6.42471 12.8171 6.15929 12.2385 5.92629L12.2375 5.9259C11.6913 5.70586 11.1753 5.49813 10.7368 5.55322C10.5451 5.57728 9.98791 5.65816 9.4488 5.73644L9.36422 5.7487C8.83015 5.82612 8.33822 5.89743 8.14983 5.92112C7.85571 5.95808 7.56391 5.87749 7.32835 5.69411C7.12758 5.53785 6.98871 5.32346 6.92841 5.0808L3.53189 6.00694C3.52971 6.00766 3.52768 6.00809 3.52551 6.00867C2.69475 6.21959 2.14391 5.77935 1.98373 5.28098C1.82109 4.77522 2.0191 4.12088 2.71244 3.84894L2.71592 3.84763C2.98815 3.74413 3.71149 3.4258 4.54892 3.05717L4.55901 3.05273C5.72739 2.5386 7.17848 1.90006 8.34205 1.42813C9.80207 0.835831 10.3229 0.731895 11.8241 0.736969C12.0291 0.737549 12.1948 0.904251 12.1942 1.10922C12.1934 1.31376 12.0275 1.47916 11.8231 1.47916H11.8219C10.4145 1.47408 9.99559 1.55816 8.62095 2.11581C7.46948 2.58289 6.02688 3.21773 4.86388 3.72953L4.84782 3.7366L4.82308 3.74748C3.95519 4.12937 3.2704 4.43068 2.98192 4.54053C2.702 4.65099 2.63373 4.87785 2.69026 5.05383C2.74781 5.23257 2.94858 5.3884 3.33996 5.28997L7.06047 4.27541C7.18919 4.08203 7.40764 3.89025 7.76308 3.72543C8.78475 3.25156 9.87817 2.84467 10.7627 2.60925C10.9609 2.55663 11.1641 2.67434 11.2167 2.87235C11.2695 3.07051 11.1516 3.27374 10.9536 3.32651C10.1088 3.55134 9.05974 3.94215 8.07532 4.39862C7.6103 4.61446 7.63189 4.78914 7.64001 4.8548C7.65248 4.9557 7.70379 5.04572 7.78425 5.10848C7.8631 5.1698 7.96008 5.19691 8.05735 5.18473C8.24437 5.16119 8.7805 5.08342 9.30703 5.00705L9.34226 5.00194L9.36364 4.99884C9.92305 4.91765 10.4482 4.84145 10.6443 4.81683C11.2738 4.73782 11.9048 4.99179 12.5148 5.2375C13.4405 5.61033 14.3175 5.96272 15.2892 5.35071V1.50061L14.7894 1.49757C14.5844 1.49626 14.4193 1.32898 14.4206 1.12401C14.4219 0.919907 14.5879 0.755379 14.7917 0.755379H14.794L15.2892 0.758423V0.371094C15.2892 0.166122 15.4553 0 15.6603 0ZM16.0314 5.9375H18.2579V0.742188H16.0314V1.13387V1.1343V1.13459V5.9375Z" fill="#8A91FF"/>
<path d="M17.1445 2.22671C17.3495 2.22671 17.5156 2.06059 17.5156 1.85561V1.85532C17.5156 1.6505 17.3495 1.48438 17.1445 1.48438C16.9396 1.48438 16.7734 1.65064 16.7734 1.85561C16.7734 2.06059 16.9396 2.22671 17.1445 2.22671Z" fill="#8A91FF"/>
<path fill-rule="evenodd" clip-rule="evenodd" d="M6.90234 12.0977C7.78297 12.0977 8.56226 11.6567 9.03222 10.9844H10.4032C10.5017 10.9844 10.596 10.9452 10.6656 10.8757L11.2991 10.2422H11.734L12.3674 10.8757C12.437 10.9452 12.5314 10.9844 12.6298 10.9844H13.2109C13.3094 10.9844 13.4037 10.9452 13.4733 10.8757L14.5866 9.76237C14.6562 9.69279 14.6953 9.59843 14.6953 9.5V8.38672C14.6953 8.18189 14.5292 8.01562 14.3242 8.01562H9.03236C8.56226 7.34331 7.78311 6.90234 6.90234 6.90234C5.47001 6.90234 4.30469 8.06767 4.30469 9.5C4.30469 10.9323 5.47001 12.0977 6.90234 12.0977ZM13.9531 8.75781V9.34634L13.0573 10.2422H12.7836L12.15 9.60872C12.0804 9.53914 11.986 9.5 11.8876 9.5H11.1454C11.047 9.5 10.9526 9.53914 10.883 9.60872L10.2496 10.2422H9.39143C9.46173 10.0069 9.5 9.75788 9.5 9.5C9.5 9.24212 9.46173 8.99308 9.39143 8.75781H13.9531ZM8.75781 9.5C8.75781 8.47688 7.92546 7.64453 6.90234 7.64453C5.87923 7.64453 5.04688 8.47688 5.04688 9.5C5.04688 10.5231 5.87923 11.3555 6.90234 11.3555C7.92546 11.3555 8.75781 10.5231 8.75781 9.5Z" fill="#8A91FF"/>
<path d="M6.16016 9.87124C6.36513 9.87124 6.53125 9.70497 6.53125 9.5C6.53125 9.29503 6.36513 9.12891 6.16016 9.12891C5.95518 9.12891 5.78906 9.29503 5.78906 9.5V9.50029C5.78906 9.70526 5.95518 9.87124 6.16016 9.87124Z" fill="#8A91FF"/>
<path d="M13.3071 1.48828H13.3073C13.5122 1.48828 13.6782 1.32201 13.6782 1.11719C13.6782 0.912216 13.512 0.746094 13.3071 0.746094C13.1022 0.746094 12.936 0.912216 12.936 1.11719C12.936 1.32201 13.1022 1.48828 13.3071 1.48828Z" fill="#8A91FF"/>
<path fill-rule="evenodd" clip-rule="evenodd" d="M15.4727 12.9917C15.4733 12.9915 15.474 12.9914 15.4746 12.9912C16.3054 12.7804 16.8562 13.2206 17.0164 13.7189C17.179 14.2246 16.981 14.879 16.2877 15.1509L16.2841 15.1522C16.012 15.2557 15.2886 15.5741 14.4511 15.9427C13.2811 16.4576 11.8248 17.0984 10.6581 17.5717C9.22762 18.1521 8.69881 18.263 7.26575 18.263L7.17603 18.2629C6.97105 18.2623 6.80537 18.0956 6.80595 17.8906C6.80667 17.6861 6.97265 17.5207 7.17704 17.5207H7.1782C8.58473 17.5261 9.00453 17.4417 10.3792 16.884C11.5359 16.4148 12.9865 15.7764 14.1522 15.2634C15.0319 14.8762 15.7273 14.5702 16.0183 14.4593C16.2981 14.3489 16.3664 14.122 16.3099 13.946C16.2523 13.7673 16.0514 13.6113 15.6602 13.7099L11.9398 14.7244C11.8109 14.9178 11.5925 15.1096 11.2372 15.2744C10.2154 15.7483 9.12195 16.1552 8.23741 16.3906C8.03954 16.4431 7.83617 16.3255 7.7834 16.1274C7.73078 15.9293 7.84863 15.7261 8.04665 15.6733C8.89146 15.4485 9.94038 15.0577 10.9248 14.6011C11.3898 14.3855 11.3682 14.2108 11.3601 14.1451L11.3601 14.1451C11.3476 14.0442 11.2965 13.9541 11.2159 13.8914C11.137 13.8299 11.04 13.8029 10.9428 13.8151C10.7516 13.8392 10.1955 13.9198 9.65786 13.9979C9.09049 14.0803 8.55458 14.158 8.35584 14.1829C7.72658 14.262 7.09543 14.0081 6.4853 13.7622C5.55959 13.3895 4.68259 13.0371 3.71094 13.6491V17.4992L4.21075 17.5023C4.41573 17.5036 4.58083 17.6709 4.57953 17.8757C4.57822 18.0799 4.41225 18.2445 4.20844 18.2445H4.20612L3.71094 18.2414V18.6288C3.71094 18.8337 3.54482 18.9999 3.33984 18.9999H0.371094C0.166122 18.9999 0 18.8337 0 18.6288V12.6914C0 12.4864 0.166122 12.3203 0.371094 12.3203H3.33984C3.54482 12.3203 3.71094 12.4864 3.71094 12.6914V12.8085C4.8493 12.3036 5.89633 12.7252 6.7626 13.074C7.30881 13.294 7.825 13.5016 8.26336 13.4466C8.45499 13.4226 9.01221 13.3417 9.55132 13.2634L9.6359 13.2512C10.17 13.1737 10.6619 13.1024 10.8503 13.0787C11.1444 13.0418 11.4362 13.1224 11.6718 13.3057C11.8725 13.462 12.0114 13.6764 12.0717 13.9191L15.4682 12.9929C15.4698 12.9924 15.4712 12.992 15.4727 12.9917ZM0.742188 13.0624V18.2577H2.96875V17.8661V17.8657V13.0624H0.742188Z" fill="#8A91FF"/>
<path d="M5.69302 17.5117H5.69273C5.48775 17.5117 5.32178 17.678 5.32178 17.8828C5.32178 18.0878 5.48804 18.2539 5.69302 18.2539C5.89799 18.2539 6.06411 18.0878 6.06411 17.8828C6.06411 17.678 5.89799 17.5117 5.69302 17.5117Z" fill="#8A91FF"/>
</svg>
