<svg width="22" height="17" viewBox="0 0 22 17" fill="none" xmlns="http://www.w3.org/2000/svg">
<path fill-rule="evenodd" clip-rule="evenodd" d="M0 10.8442C0 4.8551 4.92511 0 11.0002 0C17.0749 0 22 4.8551 22 10.844C22 13.8959 20.5607 16.2105 20.5607 16.2105L1.43516 16.2096C1.43516 16.2096 0 14.0917 0 10.8442ZM2.28137 14.882L19.7539 14.8894C19.7539 14.8894 20.7241 13.1868 20.7239 10.81C20.7239 5.56055 16.3868 1.30511 11.0371 1.30511C5.68718 1.30511 1.35034 5.56078 1.35034 10.81C1.35034 13.1602 2.28137 14.882 2.28137 14.882Z" fill="#8A91FF"/>
<path d="M14.1087 2.87923L13.9707 2.879L11.0365 8.49357L7.99673 2.83105L3.83484 13.0606H2.75928V13.8822H8.65161V13.0606H7.48245L8.65161 9.86351L11.0365 13.8822L13.328 9.86351L14.4969 13.0606H13.328V13.8822H19.1733V13.0606H18.1607L14.1087 2.87923Z" fill="#8A91FF"/>
</svg>
