<svg width="19" height="19" viewBox="0 0 19 19" fill="none" xmlns="http://www.w3.org/2000/svg">
<path fill-rule="evenodd" clip-rule="evenodd" d="M0.356783 5.24841C0.349735 5.28596 0.345763 5.32401 0.344481 5.36206V6.14368C0.345506 6.4658 0.549635 6.75376 0.857557 6.86691V8.01699C0.858966 8.40202 1.16791 8.71849 1.56028 8.7367V15.3809C1.16791 15.3992 0.858966 15.7157 0.857557 16.1006V17.2473C0.548994 17.3634 0.344994 17.6535 0.344481 17.9773V18.7418C0.344481 18.8843 0.462627 19 0.608067 19H18.3802C18.5256 19 18.6436 18.8843 18.6436 18.7418V17.9773C18.6431 17.6534 18.4391 17.3633 18.1307 17.2473V16.0938C18.1293 15.7088 17.8202 15.3923 17.428 15.3741V8.7367C17.8202 8.71849 18.1293 8.40202 18.1307 8.01699V6.86691C18.4385 6.75376 18.6426 6.4658 18.6436 6.14368V5.36721C18.6425 5.32916 18.6384 5.29111 18.6313 5.25356C18.7638 5.31108 18.9187 5.25256 18.9774 5.1227C19.0361 4.99298 18.9764 4.84115 18.844 4.78351L9.61534 0.0298571C9.53832 -0.00995237 9.44632 -0.00995237 9.36931 0.0298571L0.140737 4.77836C0.0119559 4.84504 -0.0373782 5.00114 0.0304082 5.12735C0.0924284 5.24263 0.232358 5.29462 0.356783 5.24841ZM1.3846 7.31448V6.91677H4.42384V7.31109L1.3846 7.31448ZM8.15184 15.3809V8.73846L8.14838 8.7367C7.75537 8.71824 7.44617 8.40102 7.44553 8.01536V6.91677H4.9473V8.01699C4.94589 8.40202 4.63694 8.71849 4.24457 8.7367V15.3809C4.63694 15.3992 4.94589 15.7157 4.9473 16.1006V17.199H7.44912V16.1006C7.45053 15.7157 7.75947 15.3992 8.15184 15.3809ZM7.97616 7.31448V6.91677H11.0155V7.31109L7.97616 7.31448ZM14.7435 15.3809V8.73846L14.7399 8.7367C14.3469 8.71824 14.0377 8.40102 14.0372 8.01536V6.91677H11.539V8.01699C11.5376 8.40202 11.2285 8.71849 10.8363 8.7367V15.3809C11.2285 15.3992 11.5376 15.7157 11.539 16.1006V17.199H14.0407V16.1006C14.0421 15.7157 14.3512 15.3992 14.7435 15.3809ZM14.5679 7.31448V6.91677H17.6071V7.31109L14.5679 7.31448ZM17.6071 17.199V16.8048H14.5643V17.199H17.6071ZM11.0155 16.8048V17.199H7.9727V16.8048H11.0155ZM8.18349 8.22533H8.41184H10.8012C10.9176 8.22533 11.0119 8.1329 11.0119 8.01875V7.831H7.9727V8.01875C7.9727 8.1329 8.06701 8.22533 8.18349 8.22533ZM10.311 8.74185V15.3775H8.67543V8.74185H10.311ZM10.8012 15.894H8.41184H8.18349C8.06701 15.894 7.9727 15.9864 7.9727 16.1006V16.2883H11.0119V16.1006C11.0119 15.9864 10.9176 15.894 10.8012 15.894ZM4.42038 16.8048V17.199H1.38101V16.8048H4.42038ZM1.38101 7.831V8.01699V8.02074C1.38202 8.13181 1.47276 8.2226 1.58655 8.22533H4.20946C4.32607 8.22533 4.42038 8.1329 4.42038 8.01875V7.831H1.38101ZM3.71766 8.747V15.3775H2.08374V8.74185L3.71766 8.747ZM1.5918 15.8991C1.47532 15.8991 1.38101 15.9916 1.38101 16.1058V16.2935H4.42038V16.1058C4.42038 15.9916 4.32607 15.8991 4.20946 15.8991H1.5918ZM18.1166 17.9877V18.4938H0.868064V17.9877C0.868064 17.8403 0.989926 17.7207 1.14036 17.7207H17.8443C17.9925 17.7207 18.1138 17.8371 18.1166 17.9824V17.9877ZM17.6036 16.2935V16.1058V16.1006C17.6008 15.9904 17.5105 15.9019 17.3981 15.8991H14.7751C14.6586 15.8991 14.5643 15.9916 14.5643 16.1058V16.2935H17.6036ZM15.267 15.3826V8.74185H16.9026V15.3775L15.267 15.3826ZM17.3928 8.23048C17.5093 8.23048 17.6036 8.13805 17.6036 8.0239L17.6053 7.831H14.5661V8.0239C14.5661 8.13805 14.6604 8.23048 14.7768 8.23048H17.3928ZM9.49232 0.546375L17.34 4.58898H1.6446L9.49232 0.546375ZM1.13152 5.10901C0.986082 5.10901 0.868064 5.22468 0.868064 5.36721V6.14896C0.868064 6.29149 0.986082 6.40715 1.13152 6.40715H17.8531C17.9986 6.40715 18.1166 6.29149 18.1166 6.14896V5.36721C18.1166 5.22468 17.9986 5.10901 17.8531 5.10901H1.13152Z" fill="#8A91FF"/>
</svg>
