<svg width="25" height="34" viewBox="0 0 25 34" fill="none" xmlns="http://www.w3.org/2000/svg">
<rect x="0.5" y="31.5" width="24" height="2" fill="#666EE8" stroke="#666EE8"/>
<path fill-rule="evenodd" clip-rule="evenodd" d="M19.7596 0V8.18622H25V31.1459H22.4226V18.5985H2.42265V31.1459H0V8.18622H5.1547V0L9.74464 1.19193L12.4572 0.311381L15.1697 1.19193L19.7596 0ZM2.42265 31.1459V32.5985H22.4226V31.1459H2.42265ZM9.82415 3.9005L7.73205 3.35704V10.7892H17.1823V3.35704L15.0902 3.9005L12.4572 3.04566L9.82415 3.9005ZM2.57735 15.9955H22.4226V10.7893H19.7596V13.3924H5.1547V10.7893H2.57735V15.9955Z" fill="#666EE8"/>
<rect x="6.01367" y="21.2012" width="2.57735" height="2.60308" fill="#666EE8"/>
<rect x="11.168" y="21.2012" width="2.57735" height="2.60308" fill="#666EE8"/>
<rect x="6.01367" y="26.4082" width="2.57735" height="2.60308" fill="#666EE8"/>
<rect x="11.168" y="26.4082" width="2.57735" height="2.60308" fill="#666EE8"/>
<rect x="16.3228" y="21.2012" width="2.57735" height="2.60308" fill="#666EE8"/>
<rect x="16.3228" y="26.4082" width="2.57735" height="3" fill="#666EE8"/>
</svg>
