<svg width="17" height="19" viewBox="0 0 17 19" fill="none" xmlns="http://www.w3.org/2000/svg">
<path d="M0.278171 1.75523C0.431804 1.75523 0.556343 1.63073 0.556343 1.47706V0.649042C0.556343 0.597905 0.597942 0.556306 0.649079 0.556306H11.0387C11.0899 0.556306 11.1315 0.597868 11.1315 0.649042V3.67876C11.1315 3.83239 11.256 3.95693 11.4096 3.95693C11.5633 3.95693 11.6878 3.83243 11.6878 3.67876V0.649042C11.6878 0.29116 11.3966 0 11.0388 0H0.649042C0.29116 0 0 0.29116 0 0.649042V1.47706C0 1.63073 0.124539 1.75523 0.278171 1.75523Z" fill="#8A91FF"/>
<path fill-rule="evenodd" clip-rule="evenodd" d="M15.8406 7.1283H15.6458V5.79738C15.6458 5.23502 15.1883 4.77746 14.6259 4.77746H2.45894C1.89655 4.77746 1.43902 5.23502 1.43902 5.79738V6.78497H0.649079C0.597942 6.78497 0.556343 6.7434 0.556343 6.69223V2.77134C0.556343 2.6177 0.431804 2.49316 0.278171 2.49316C0.124539 2.49316 0 2.61767 0 2.77134V6.69223C0 7.05011 0.29116 7.34127 0.649042 7.34127H1.43895V9.01561C1.43895 9.57796 1.89647 10.0355 2.45886 10.0355H14.6258C15.1882 10.0355 15.6457 9.57796 15.6457 9.01561V7.68464H15.8405C16.0961 7.68464 16.3041 7.8926 16.3041 8.14825V9.67526C16.3041 9.99648 16.0642 10.2728 15.7461 10.3178L9.30026 11.2319C8.73894 11.3115 8.30911 11.7788 8.26769 12.337H7.46324C7.20759 12.337 6.99963 12.5449 6.99963 12.8006V13.4003C6.99963 13.7437 7.07014 14.0769 7.20915 14.3908C7.31654 14.6334 7.37102 14.8908 7.37102 15.156V18.5365C7.37102 18.7921 7.57898 19.0001 7.83463 19.0001H9.2499C9.50555 19.0001 9.71351 18.7921 9.71351 18.5365V17.9125C9.71351 17.7589 9.58897 17.6344 9.43534 17.6344C9.2817 17.6344 9.15717 17.7589 9.15717 17.9125V18.4437H7.92733V15.156C7.92733 14.8127 7.85682 14.4794 7.71777 14.1655C7.61038 13.923 7.5559 13.6655 7.5559 13.4003V12.8933H9.5287V13.4003C9.5287 13.6655 9.47427 13.923 9.36683 14.1655C9.22779 14.4794 9.15728 14.8127 9.15728 15.156V16.5553C9.15728 16.709 9.28182 16.8335 9.43545 16.8335C9.58908 16.8335 9.71362 16.709 9.71362 16.5553V15.156C9.71362 14.8908 9.7681 14.6333 9.87549 14.3908C10.0145 14.0769 10.085 13.7436 10.085 13.4003V12.8006C10.085 12.5449 9.87705 12.337 9.6214 12.337H8.82734C8.86664 12.0547 9.09007 11.8236 9.37849 11.7827L15.8244 10.8687C16.4151 10.7849 16.8605 10.2718 16.8605 9.67526V8.14825C16.8605 7.58586 16.4029 7.1283 15.8406 7.1283ZM4.9316 7.21358C4.88013 7.18664 4.82414 7.17332 4.7684 7.17332C4.69826 7.17332 4.62849 7.19439 4.56845 7.23599C4.44744 7.3199 4.30531 7.36428 4.1575 7.36428C3.75873 7.36428 3.43428 7.03983 3.43428 6.64106V5.33373H13.4881V6.64024C13.4881 7.03902 13.1637 7.36346 12.7649 7.36346C12.4051 7.36346 12.0972 7.09513 12.0487 6.73928C12.0339 6.63096 11.968 6.53429 11.8724 6.48063C11.7769 6.42708 11.6601 6.42122 11.5601 6.46505C11.4686 6.50509 11.3713 6.52542 11.2708 6.52542C11.0394 6.52542 10.8275 6.41847 10.6894 6.23204C10.6236 6.14324 10.5181 6.09021 10.4073 6.09021C10.2964 6.09021 10.1909 6.14324 10.1252 6.232C9.98711 6.41844 9.77515 6.52542 9.54377 6.52542H6.84529C6.69166 6.52542 6.56712 6.64993 6.56712 6.8036V7.65377C6.56712 8.05255 6.24268 8.37699 5.8439 8.37699C5.44512 8.37699 5.12068 8.05255 5.12068 7.65377V7.52589C5.12068 7.39434 5.04824 7.27466 4.9316 7.21358ZM14.6259 9.47921C14.8815 9.47921 15.0895 9.27125 15.0895 9.01561H15.0895V5.79741C15.0895 5.54177 14.8815 5.33381 14.6259 5.33381H14.0445V6.64031C14.0445 7.34584 13.4705 7.91984 12.7649 7.91984C12.2107 7.91984 11.7259 7.55959 11.5531 7.05052C11.461 7.0713 11.3667 7.0818 11.2708 7.0818C10.95 7.0818 10.6412 6.95931 10.4073 6.74585C10.1733 6.95927 9.86451 7.0818 9.54377 7.0818H7.12346V7.65381C7.12346 8.35933 6.5495 8.93334 5.84394 8.93334C5.20491 8.93334 4.67377 8.46245 4.57932 7.84941C4.44488 7.89639 4.30271 7.92062 4.1575 7.92062C3.45198 7.92062 2.87797 7.34665 2.87797 6.64109V5.33377H2.45894C2.20329 5.33377 1.99533 5.54173 1.99533 5.79738V9.01561C1.99533 9.27125 2.20329 9.47921 2.45894 9.47921H14.6259Z" fill="#8A91FF"/>
<path fill-rule="evenodd" clip-rule="evenodd" d="M3.54726 10.7078C3.64096 10.5753 3.79377 10.4961 3.95602 10.4961C4.11826 10.4961 4.27107 10.5753 4.36481 10.7079C5.03215 11.6516 5.03215 11.9827 5.03215 12.0915C5.03215 12.6849 4.54939 13.1677 3.95602 13.1677C3.36264 13.1677 2.87988 12.6849 2.87988 12.0915C2.87988 11.9827 2.87988 11.6516 3.54726 10.7078ZM3.43619 12.0915C3.43619 12.3782 3.66938 12.6114 3.95602 12.6114C4.24265 12.6114 4.47584 12.3782 4.47584 12.0915C4.47584 11.9747 4.33858 11.6448 3.95602 11.0939C3.57342 11.6449 3.43619 11.9746 3.43619 12.0915Z" fill="#8A91FF"/>
</svg>
